<?xml version="1.0" encoding="iso-8859-1"?>
<!-- Generator: Adobe Illustrator 16.0.0, SVG Export Plug-In . SVG Version: 6.00 Build 0)  -->
<!DOCTYPE svg PUBLIC "-//W3C//DTD SVG 1.1//EN" "http://www.w3.org/Graphics/SVG/1.1/DTD/svg11.dtd">
<svg version="1.1" id="Capa_1" xmlns="http://www.w3.org/2000/svg" xmlns:xlink="http://www.w3.org/1999/xlink" x="0px" y="0px"
	 width="530.412px" height="530.412px" viewBox="0 0 530.412 530.412" style="enable-background:new 0 0 530.412 530.412;"
	 xml:space="preserve">
<g>
	<path d="M518.53,236.485L293.934,11.897C286.255,4.227,276.06,0,265.208,0c-10.853,0-21.041,4.219-28.727,11.897L11.889,236.485
		c-15.843,15.843-15.843,41.592,0,57.434l224.604,224.596c7.67,7.67,17.866,11.897,28.727,11.897
		c10.853,0,21.041-4.219,28.727-11.897L518.55,293.919C534.361,278.097,534.361,252.323,518.53,236.485z M480.594,295.049
		l-185.546,185.55c-7.972,7.98-18.568,12.371-29.836,12.371c-11.269,0-21.877-4.39-29.837-12.371l-185.55-185.55
		c-7.972-7.972-12.362-18.568-12.362-29.837c0-11.269,4.39-21.877,12.362-29.837l185.546-185.55
		c7.972-7.98,18.567-12.362,29.837-12.362c11.268,0,21.876,4.39,29.836,12.362l185.55,185.55
		c7.973,7.972,12.362,18.568,12.362,29.837C492.956,276.48,488.579,287.085,480.594,295.049z"/>
	<path d="M287.357,65.692c-5.912-5.912-13.786-9.18-22.15-9.18c-8.364,0-16.238,3.252-22.15,9.18L65.7,243.05
		c-5.912,5.912-9.18,13.778-9.18,22.15c0,8.373,3.252,16.238,9.18,22.15l177.357,177.358c11.832,11.832,32.469,11.832,44.301,0
		L464.716,287.35c5.912-5.912,9.18-13.777,9.18-22.15c0-8.372-3.252-16.238-9.18-22.15L287.357,65.692z M217.696,351.523
		c0,7.851-1.016,12.656-8.866,12.656h-19.641c-7.85,0-9.425-4.81-9.425-12.656v-19.567H217.7v19.567H217.696z M341.401,349.945
		c0,7.822-1.652,14.643-9.475,14.643h-18.074c-7.82,0-10.253-6.812-10.253-14.643v-17.817h37.802V349.945z M369.737,294.27
		c0,5.92,0,18.455-19.205,18.455H170.38c-19.205,0-19.205-12.535-19.205-18.455v-46.704c0-5.92,4.81-10.73,10.73-10.73
		l26.883-57.463c3.288-5.218,13.578-18.389,29.143-18.389h84.717c16.63,0,26.074,13.191,29.069,18.646
		c6.157,12.069,28.67,57.491,28.67,57.491c5.92,0,9.339,4.684,9.339,10.616v46.537h0.009v-0.004H369.737z"/>
	<path d="M312.723,189.524c-3.573-7.014-10.061-10.196-19.005-10.196h-66.319c-10.103,0-16.431,3.068-19.404,9.796l-18.805,47.712
		h142.737C326.358,222.535,317.557,199.014,312.723,189.524z"/>
	<circle cx="198.851" cy="275.18" r="19.09"/>
	<circle cx="322.233" cy="275.18" r="19.09"/>
</g>
<g>
</g>
<g>
</g>
<g>
</g>
<g>
</g>
<g>
</g>
<g>
</g>
<g>
</g>
<g>
</g>
<g>
</g>
<g>
</g>
<g>
</g>
<g>
</g>
<g>
</g>
<g>
</g>
<g>
</g>
</svg>
